<svg width="18" height="33" viewBox="0 0 18 33" fill="none" xmlns="http://www.w3.org/2000/svg">
<g clip-path="url(#clip0_81744_535)">
<path d="M17.9653 3.87278V29.1272C17.9653 29.2289 17.9247 29.3262 17.852 29.3945C17.7332 29.5093 17.6214 29.6516 17.5207 29.8187C17.2146 30.3373 17.1238 30.9198 17.1098 31.0215C17.0371 32.554 11.9895 32.9637 8.99951 32.9637C6.00673 32.9637 0.949344 32.5526 0.889237 31.0186C0.878054 30.9271 0.78999 30.3416 0.478272 29.8172C0.380423 29.6516 0.269994 29.5093 0.149779 29.396C0.0770915 29.3262 0.0351562 29.2289 0.0351562 29.1272V3.87423C0.0351562 3.82194 0.046339 3.774 0.0645109 3.72897C0.0659088 3.72461 0.0687044 3.72171 0.0701023 3.7188C0.0784893 3.69992 0.0882742 3.68248 0.0994569 3.6665C0.10365 3.65924 0.107844 3.65488 0.112038 3.64907C0.121822 3.636 0.133005 3.62293 0.145586 3.6113C0.146984 3.60985 0.148381 3.60695 0.149779 3.60549C0.271391 3.49073 0.381821 3.34983 0.478272 3.18568C0.816549 2.61623 0.890635 1.97416 0.890635 1.9669C0.892033 1.96109 0.894828 1.95382 0.894828 1.94801C1.02762 0.441607 6.0277 0.0363159 8.99951 0.0363159C11.9727 0.0363159 16.9714 0.441607 17.1042 1.94801C17.1056 1.95382 17.1084 1.95963 17.1084 1.9669C17.1098 1.97271 17.1881 2.62059 17.5221 3.18422C17.6172 3.34402 17.7248 3.48347 17.8423 3.59678L17.8478 3.60259C17.8492 3.60404 17.8506 3.60549 17.852 3.60695L17.8534 3.6084C17.8688 3.62438 17.8828 3.64036 17.8968 3.65924C17.8996 3.66215 17.901 3.66651 17.9038 3.67086C17.9135 3.68684 17.9233 3.70282 17.9317 3.72025C17.9331 3.72461 17.9359 3.72897 17.9373 3.73478C17.9443 3.75221 17.9499 3.7711 17.9541 3.78998C17.9555 3.79434 17.9569 3.7987 17.9583 3.80305C17.9583 3.80596 17.9597 3.81032 17.9611 3.81322C17.9639 3.83356 17.9653 3.85245 17.9653 3.87278ZM17.2677 28.9253L17.2663 4.76326C17.2621 4.76617 17.258 4.76762 17.2538 4.77052C17.1951 4.80103 17.1294 4.83299 17.0609 4.86495C17.0231 4.88238 16.9756 4.90272 16.9239 4.92305C16.8526 4.95356 16.7729 4.98261 16.6876 5.01312C16.6834 5.01457 16.6792 5.01602 16.6751 5.01748C16.2291 5.17872 15.698 5.31091 15.1248 5.41841C14.9487 5.45182 14.7684 5.48233 14.5839 5.51138C14.3211 5.55496 14.0443 5.59563 13.7494 5.63195L13.5649 5.65374C13.4446 5.66972 13.3188 5.68425 13.1902 5.69732C13.1455 5.70168 13.1008 5.70749 13.0546 5.71039C13.0029 5.7162 12.9526 5.72201 12.9009 5.72637C12.7555 5.7409 12.6045 5.75543 12.4536 5.76705L12.3236 5.77722C12.2145 5.78593 12.1041 5.79465 11.9937 5.80336C11.921 5.80917 11.8385 5.81353 11.7561 5.81934C11.682 5.8237 11.6023 5.82951 11.5198 5.83387C11.3633 5.84404 11.1997 5.85275 11.0362 5.86002C10.8796 5.86728 10.723 5.87309 10.5623 5.8789C10.34 5.88762 10.115 5.89343 9.88714 5.89779C9.77112 5.90069 9.6537 5.90214 9.53488 5.9036H9.50134C9.33499 5.90505 9.16725 5.9065 8.99951 5.9065C8.71295 5.9065 3.40395 5.89197 1.09472 4.92741C1.09332 4.92741 1.09332 4.92741 1.09332 4.92741C0.963323 4.87366 0.843108 4.81701 0.734077 4.756V28.9471C0.736872 28.9471 0.949344 29.4003 3.14535 29.8027C4.7319 30.0932 6.81049 30.253 8.99951 30.253C10.3624 30.253 11.7169 30.1891 12.9232 30.0671C12.9526 30.0642 12.9806 30.0613 13.0085 30.0584C13.0812 30.0511 13.1525 30.0453 13.2224 30.0351C13.2364 30.0351 13.2503 30.0322 13.2643 30.0308C15.2968 29.8042 16.3619 29.4788 16.8694 29.2333C16.8708 29.2318 16.8708 29.2318 16.8722 29.2318C16.8945 29.2202 16.9169 29.21 16.9378 29.1984C16.9406 29.1969 16.9434 29.1955 16.9462 29.194C16.9644 29.1839 16.9826 29.1752 16.998 29.1664C17.0035 29.1635 17.0077 29.1606 17.0119 29.1577C17.0259 29.1505 17.0399 29.1417 17.0525 29.1345C17.0581 29.1301 17.0637 29.1272 17.0678 29.1243C17.079 29.1171 17.0902 29.1098 17.1 29.104C17.1056 29.0996 17.1112 29.0953 17.1168 29.0909C17.1252 29.0865 17.1335 29.0807 17.1405 29.0749C17.1461 29.0706 17.1517 29.0662 17.1573 29.0618C17.1629 29.0575 17.1699 29.0517 17.1755 29.0473C17.1811 29.043 17.1853 29.0386 17.1909 29.0342C17.1951 29.0299 17.2006 29.0255 17.2048 29.0226L17.2174 29.0096C17.2216 29.0052 17.2244 29.0023 17.2272 28.9979C17.2314 28.9936 17.2356 28.9892 17.2384 28.9849C17.2412 28.982 17.244 28.979 17.2454 28.9761C17.2482 28.9732 17.251 28.9689 17.2538 28.9645C17.2552 28.9616 17.258 28.9587 17.2594 28.9573C17.2608 28.9529 17.2621 28.95 17.2635 28.9471C17.2649 28.9442 17.2663 28.9413 17.2663 28.9398C17.2663 28.9355 17.2677 28.9297 17.2677 28.9253ZM17.1964 3.94687C17.1 3.83211 17.0105 3.70427 16.9267 3.56627C16.7743 3.3077 16.6653 3.03896 16.587 2.80072C16.5814 2.80363 16.5744 2.80799 16.5674 2.81234C16.5297 2.83704 16.4891 2.86028 16.4472 2.88498C16.4346 2.89224 16.422 2.89805 16.4095 2.90531C16.3577 2.93437 16.3046 2.96197 16.2473 2.98811C16.2403 2.99102 16.2319 2.99538 16.225 2.99828C16.1732 3.02153 16.1187 3.04622 16.0628 3.06946C16.046 3.07527 16.0293 3.08254 16.0125 3.0898C15.9468 3.11595 15.8811 3.14064 15.8098 3.16534C15.4268 3.30189 14.9669 3.42101 14.4455 3.5256C14.1254 3.59097 13.7829 3.64907 13.4195 3.69992C13.3971 3.70427 13.3734 3.70718 13.3496 3.71008C12.9596 3.76529 12.5458 3.81032 12.1139 3.84954C11.6149 3.89457 11.0921 3.92944 10.5511 3.95123C10.0479 3.97156 9.52929 3.98318 8.99951 3.98318C6.18146 3.98318 3.63599 3.67813 2.19063 3.16534C2.11934 3.14064 2.05224 3.11595 1.98794 3.0898C1.97117 3.08254 1.95439 3.07527 1.93762 3.06946C1.8817 3.04622 1.82719 3.02153 1.77547 2.99828C1.76848 2.99538 1.76009 2.99102 1.7531 2.98811C1.69579 2.96197 1.64267 2.93437 1.59095 2.90531C1.57837 2.8995 1.56579 2.89224 1.55321 2.88498C1.51128 2.86173 1.47214 2.83704 1.4344 2.8138C1.42741 2.80944 1.41902 2.80508 1.41343 2.80072C1.33655 3.03896 1.22751 3.30625 1.07375 3.56482C0.991279 3.70427 0.90042 3.83356 0.802571 3.94977C0.96472 4.09504 1.4931 4.4277 3.14675 4.72985C4.7319 5.02038 6.81189 5.18017 8.99951 5.18017C9.52789 5.18017 10.0479 5.17 10.5567 5.15257C10.6713 5.14821 10.7818 5.14386 10.8922 5.13805C10.9481 5.13659 11.004 5.13369 11.0585 5.13078C11.2011 5.12497 11.3423 5.11771 11.4807 5.10754C11.5604 5.10318 11.6372 5.10028 11.7127 5.09447C11.7421 5.09301 11.7686 5.09011 11.7966 5.08866C11.8315 5.0872 11.8665 5.0843 11.9028 5.08139C11.9154 5.07994 11.928 5.07994 11.9406 5.07849C12.0566 5.07122 12.1642 5.06251 12.2705 5.05379L12.3893 5.04362C12.3935 5.04362 12.3991 5.04362 12.4047 5.04217C12.55 5.032 12.6954 5.01748 12.8366 5.00295C12.9344 4.99423 13.0267 4.98407 13.1189 4.9739C13.2434 4.96082 13.3636 4.9492 13.4824 4.93322L13.6501 4.91288C13.6739 4.90998 13.6977 4.90707 13.7214 4.90417C13.8039 4.89255 13.885 4.88238 13.9646 4.87221C14.0178 4.86349 14.0695 4.85623 14.1212 4.84897C14.1701 4.8417 14.219 4.83444 14.2666 4.82718C14.3365 4.81701 14.405 4.80539 14.4735 4.79522C14.507 4.78941 14.5406 4.7836 14.5727 4.77924C14.623 4.77052 14.6719 4.76181 14.7209 4.75309C14.7796 4.74292 14.8397 4.7313 14.897 4.72113L14.925 4.71678C14.9893 4.7037 15.055 4.69208 15.1165 4.67901C15.1318 4.6761 15.1486 4.6732 15.164 4.66884C15.1892 4.66448 15.2115 4.66012 15.2353 4.65431C15.2716 4.64705 15.308 4.63978 15.3443 4.63107C15.3751 4.62526 15.4044 4.618 15.4338 4.61218C15.4645 4.60492 15.4911 4.59911 15.519 4.5933C15.5344 4.58894 15.5512 4.58604 15.5666 4.58168C15.5931 4.57587 15.6183 4.5686 15.6434 4.56279C15.7623 4.53519 15.8699 4.50759 15.9719 4.47854C16.0209 4.46547 16.0642 4.45239 16.1061 4.43932C16.162 4.42479 16.2138 4.40881 16.2627 4.39283C16.2934 4.38266 16.3228 4.37395 16.3508 4.36378C16.3619 4.36088 16.3731 4.35652 16.3829 4.35361C16.4095 4.3449 16.4346 4.33618 16.4598 4.32601C16.4933 4.31439 16.5241 4.30277 16.5562 4.29115C16.5604 4.28969 16.566 4.28824 16.5702 4.28534C16.5828 4.28098 16.594 4.27662 16.6052 4.27226C16.6373 4.25919 16.6681 4.24757 16.6974 4.23449C16.7058 4.23159 16.7142 4.22723 16.7212 4.22433C16.7547 4.2098 16.7869 4.19672 16.8162 4.1822C16.8176 4.1822 16.8176 4.18075 16.819 4.18075C17.0231 4.08487 17.1349 4.00352 17.1964 3.94687ZM16.6177 30.1107C16.6108 30.1136 16.6024 30.1165 16.5954 30.1179C16.5073 30.1484 16.4165 30.1789 16.32 30.208C16.3144 30.2094 16.3074 30.2109 16.3018 30.2124C16.2026 30.2429 16.0991 30.2719 15.9915 30.2995C15.9873 30.301 15.9831 30.3024 15.9789 30.3039C15.8713 30.3315 15.7595 30.3576 15.6434 30.3838C15.6309 30.3867 15.6183 30.391 15.6043 30.3939C15.4925 30.4186 15.3765 30.4433 15.2562 30.4666C15.2381 30.4709 15.2185 30.4738 15.2003 30.4782C15.0815 30.5014 14.9585 30.5232 14.8327 30.545C14.8103 30.5494 14.788 30.5523 14.7656 30.5566C14.6384 30.5784 14.5084 30.5988 14.3742 30.6191C14.3504 30.622 14.3281 30.6249 14.3043 30.6293C14.1673 30.6496 14.0261 30.6685 13.8808 30.6874C13.8612 30.6903 13.8416 30.6932 13.8221 30.6946C13.6767 30.7135 13.5285 30.731 13.3748 30.7484C13.3664 30.7498 13.358 30.7513 13.3496 30.7513C13.3454 30.7527 13.3412 30.7527 13.3384 30.7527C13.2545 30.7644 13.1665 30.7731 13.0756 30.7818C11.8273 30.9111 10.4169 30.9794 8.99951 30.9794H8.89467C8.8737 30.9794 8.84854 30.9794 8.82198 30.9779H8.79263C8.76188 30.9779 8.73112 30.9779 8.69478 30.9765C8.69338 30.9765 8.69199 30.9765 8.69199 30.9765C8.65704 30.9765 8.6193 30.9764 8.57876 30.975H8.53822C8.49629 30.9735 8.45435 30.9735 8.40822 30.9721H8.39844C8.35371 30.9721 8.30618 30.9706 8.25865 30.9692C8.23909 30.9692 8.22091 30.9692 8.20134 30.9677C8.15102 30.9663 8.1007 30.9663 8.04618 30.9648C8.03919 30.9634 8.0322 30.9634 8.02522 30.9634C7.9721 30.9619 7.91618 30.9605 7.85887 30.959C7.8379 30.9576 7.81694 30.9576 7.79457 30.9561C7.74145 30.9547 7.68694 30.9532 7.62963 30.9518C7.61145 30.9503 7.59328 30.9503 7.57511 30.9489C7.5178 30.9474 7.45909 30.9445 7.40038 30.943C7.37522 30.9416 7.35146 30.9401 7.32769 30.9401C7.26759 30.9372 7.20608 30.9343 7.14458 30.9314C7.12221 30.9314 7.10124 30.93 7.07888 30.9285C7.01597 30.9256 6.95307 30.9227 6.88877 30.9198L6.80909 30.9154C6.74479 30.9125 6.68049 30.9082 6.61479 30.9053C6.58823 30.9038 6.56168 30.9024 6.53512 30.9009C6.46942 30.8966 6.40372 30.8922 6.33662 30.8878C6.30727 30.8864 6.27791 30.8849 6.24856 30.882C6.17867 30.8777 6.10738 30.8733 6.03609 30.869C6.01372 30.8675 5.98996 30.8646 5.96759 30.8631C5.8963 30.8588 5.82501 30.853 5.75233 30.8472C5.72157 30.8457 5.69082 30.8428 5.66007 30.8399C5.58738 30.8355 5.51469 30.8283 5.44201 30.8225C5.41684 30.821 5.39168 30.8181 5.36652 30.8167C5.29383 30.8094 5.21975 30.8036 5.14566 30.7963C5.11491 30.7934 5.08416 30.7905 5.05341 30.7876C4.97652 30.7803 4.89964 30.7731 4.82276 30.7644C4.80179 30.7629 4.78083 30.7615 4.76126 30.7586C4.68298 30.7498 4.6047 30.7426 4.52642 30.7339C4.49706 30.7295 4.46911 30.7266 4.43975 30.7237C4.36147 30.715 4.2832 30.7048 4.20492 30.6961C4.18395 30.6932 4.16298 30.6903 4.14201 30.6874C4.06513 30.6787 3.98825 30.6685 3.91137 30.6569C3.88201 30.654 3.85406 30.6496 3.8247 30.6452C3.74503 30.6351 3.66395 30.6235 3.58427 30.6118C3.5689 30.6089 3.55352 30.606 3.53954 30.6046C3.45987 30.5929 3.38159 30.5799 3.30331 30.5668C3.27675 30.5624 3.25019 30.5581 3.22363 30.5537C3.14256 30.5407 3.06288 30.5261 2.9832 30.5116C2.97202 30.5101 2.96084 30.5087 2.94965 30.5058C2.87138 30.4913 2.7931 30.4767 2.71622 30.4608C2.69245 30.4564 2.66729 30.452 2.64353 30.4462C2.56385 30.4303 2.48557 30.4143 2.40869 30.3968C2.4017 30.3954 2.39331 30.3939 2.38493 30.391C2.30944 30.3751 2.23536 30.3562 2.16127 30.3387C2.1403 30.3329 2.11794 30.3286 2.09697 30.3228C2.02009 30.3039 1.94461 30.2835 1.87052 30.2632C1.86773 30.2632 1.86353 30.2617 1.85934 30.2603C1.78805 30.24 1.71816 30.2196 1.64826 30.1978C1.63009 30.192 1.61052 30.1862 1.59095 30.1804C1.52106 30.1586 1.45117 30.1354 1.38407 30.1121C1.38407 30.1121 1.38407 30.1121 1.38268 30.1121C1.54482 30.5741 1.58536 30.9459 1.58536 30.9518C1.58676 30.9648 1.58816 30.9779 1.58816 30.991C1.70697 31.421 4.35728 32.2374 8.99951 32.2374C13.6431 32.2374 16.2934 31.421 16.4137 30.9837C16.4137 30.9692 16.4137 30.9605 16.4151 30.9459C16.422 30.8907 16.4682 30.5407 16.6177 30.1107ZM16.4095 2.00902C16.4095 2.00757 16.4095 2.00902 16.4095 2.00902C16.2599 1.56742 13.6124 0.762644 8.99951 0.762644C4.37545 0.762644 1.72654 1.57177 1.58956 2.01048C1.59794 2.02646 1.66224 2.13831 1.97117 2.29374C1.97256 2.29374 1.97256 2.29374 1.97396 2.2952C1.99773 2.30682 2.02289 2.31844 2.04945 2.33006C2.05504 2.33297 2.05923 2.33587 2.06482 2.33878C2.08858 2.34895 2.11375 2.36057 2.13891 2.37074C2.14869 2.37509 2.15848 2.37945 2.16826 2.38381C2.19482 2.39398 2.22278 2.4056 2.25073 2.41722C2.26331 2.42158 2.2731 2.42594 2.28568 2.43029C2.29826 2.43465 2.31224 2.44046 2.32622 2.44482C3.99664 2.06132 6.4191 1.84052 8.99951 1.84052C11.5813 1.84052 14.0024 2.06132 15.6742 2.44482C15.6868 2.44046 15.6994 2.4361 15.7119 2.43175C15.7259 2.42594 15.7385 2.42158 15.7511 2.41577C15.7762 2.4056 15.8014 2.39543 15.8252 2.38671C15.8405 2.37945 15.8531 2.37364 15.8671 2.36783C15.8881 2.35911 15.9076 2.3504 15.9258 2.34168C15.9398 2.33587 15.9524 2.33006 15.965 2.32425C15.9831 2.31553 15.9999 2.30827 16.0153 2.29956C16.0279 2.29374 16.039 2.28793 16.0502 2.28212C16.0656 2.27486 16.0796 2.26614 16.0936 2.25888C16.1033 2.25307 16.1131 2.24726 16.1229 2.2429C16.1369 2.23564 16.1481 2.22837 16.1607 2.22111C16.169 2.2153 16.1774 2.21094 16.1858 2.20513C16.197 2.19787 16.2082 2.19206 16.218 2.1848C16.225 2.18044 16.2319 2.17463 16.2389 2.17027C16.2487 2.16446 16.2571 2.15719 16.2655 2.15138C16.2725 2.14703 16.2781 2.14267 16.2837 2.13831C16.292 2.1325 16.299 2.12524 16.3074 2.11943C16.3116 2.11652 16.3158 2.11216 16.32 2.10926C16.3298 2.10054 16.3396 2.09183 16.348 2.08311C16.3508 2.08166 16.3522 2.0802 16.3536 2.07875L16.3787 2.0526C16.3815 2.04825 16.3843 2.04534 16.3871 2.04098C16.3899 2.03808 16.3913 2.03662 16.3927 2.03372C16.3955 2.03081 16.3969 2.02791 16.3997 2.025C16.4011 2.02355 16.4025 2.02064 16.4039 2.01919C16.4053 2.01774 16.4053 2.01483 16.4067 2.01338C16.4081 2.01193 16.4081 2.01048 16.4095 2.00902ZM13.6529 2.93001C13.7634 2.91258 13.8696 2.89514 13.9744 2.87626C12.543 2.67725 10.8139 2.56684 8.99951 2.56684C7.18651 2.56684 5.45738 2.67725 4.02459 2.87626C4.12943 2.89514 4.23707 2.91258 4.3475 2.93001C4.37545 2.93437 4.40481 2.93872 4.43416 2.94308C4.53341 2.95906 4.63266 2.97359 4.7347 2.98666C4.75706 2.98957 4.77943 2.99392 4.80319 2.99683C4.92341 3.01281 5.04642 3.02879 5.17082 3.04332C5.20018 3.04767 5.22953 3.05058 5.25889 3.05348C5.36512 3.06656 5.47136 3.07818 5.58039 3.08835C5.60835 3.09125 5.63631 3.09416 5.66426 3.09706C5.79426 3.11014 5.92706 3.12321 6.05985 3.13483C6.08781 3.13629 6.11576 3.13919 6.14372 3.1421C6.25695 3.15081 6.37157 3.15953 6.48619 3.16824C6.51974 3.1697 6.55189 3.1726 6.58404 3.17551C6.72243 3.18422 6.86221 3.19294 7.002 3.20165C7.02576 3.20311 7.04952 3.20311 7.07329 3.20456C7.1949 3.21182 7.31791 3.21763 7.44092 3.22344C7.47726 3.2249 7.515 3.22635 7.55135 3.2278C7.69532 3.23361 7.8407 3.23797 7.98608 3.24233C8.00145 3.24233 8.01683 3.24378 8.0322 3.24378C8.165 3.24669 8.29919 3.24959 8.43338 3.25104C8.47252 3.2525 8.51166 3.2525 8.5508 3.25395C8.70037 3.2554 8.84994 3.25686 8.99951 3.25686C9.15048 3.25686 9.30005 3.2554 9.44962 3.25395C9.48875 3.2525 9.52789 3.2525 9.56703 3.25104C9.70123 3.24959 9.83542 3.24669 9.96821 3.24378C9.98359 3.24378 9.99897 3.24233 10.0129 3.24233C10.1597 3.23797 10.3051 3.23361 10.4491 3.2278C10.4854 3.22635 10.5218 3.2249 10.5595 3.22344C10.6825 3.21763 10.8041 3.21182 10.9257 3.20456C10.9495 3.20311 10.9747 3.20311 10.9984 3.20165C11.1382 3.19294 11.278 3.18422 11.415 3.17551C11.4485 3.1726 11.4807 3.1697 11.5142 3.16824C11.6288 3.15953 11.7435 3.15081 11.8553 3.1421C11.8833 3.13919 11.9126 3.13629 11.9406 3.13483C12.0734 3.12321 12.2062 3.11014 12.3362 3.09706C12.3641 3.09416 12.3921 3.09125 12.42 3.08835C12.5277 3.07818 12.6353 3.06656 12.7401 3.05348C12.7695 3.05058 12.8002 3.04767 12.8296 3.04332C12.954 3.02879 13.077 3.01281 13.1972 2.99683C13.221 2.99392 13.2434 2.98957 13.2657 2.98666C13.3678 2.97359 13.467 2.95906 13.5649 2.94308C13.5942 2.93872 13.6236 2.93437 13.6529 2.93001Z" fill="#111111"/>
<path d="M16.9268 3.56627C17.0107 3.70427 17.1002 3.83211 17.1966 3.94687C17.1351 4.00352 17.0233 4.08487 16.8192 4.18074C16.8178 4.18074 16.8178 4.1822 16.8164 4.1822C16.787 4.19672 16.7549 4.2098 16.7213 4.22432C16.7144 4.22723 16.706 4.23159 16.6976 4.23449C16.6682 4.24757 16.6375 4.25919 16.6053 4.27226C16.5941 4.27662 16.583 4.28098 16.5704 4.28534C16.5662 4.28824 16.5606 4.28969 16.5564 4.29115C16.5243 4.30277 16.4935 4.31439 16.46 4.32601C16.4348 4.33618 16.4096 4.34489 16.3831 4.35361C16.3733 4.35652 16.3621 4.36087 16.3509 4.36378C16.323 4.37395 16.2936 4.38266 16.2629 4.39283C16.2139 4.40881 16.1622 4.42479 16.1063 4.43932C16.0644 4.45239 16.021 4.46547 15.9721 4.47854C15.8701 4.50759 15.7624 4.53519 15.6436 4.56279C15.6185 4.5686 15.5933 4.57587 15.5667 4.58168C15.5514 4.58604 15.5346 4.58894 15.5192 4.5933C15.4912 4.59911 15.4647 4.60492 15.4339 4.61218C15.4046 4.61799 15.3752 4.62526 15.3445 4.63107C15.3081 4.63978 15.2718 4.64705 15.2354 4.65431C15.2117 4.66012 15.1893 4.66448 15.1642 4.66884C15.1488 4.6732 15.132 4.6761 15.1166 4.67901C15.0551 4.69208 14.9894 4.7037 14.9251 4.71678L14.8972 4.72113C14.8399 4.7313 14.7797 4.74292 14.721 4.75309C14.6721 4.76181 14.6232 4.77052 14.5729 4.77924C14.5407 4.7836 14.5072 4.78941 14.4736 4.79522C14.4051 4.80539 14.3366 4.81701 14.2667 4.82718C14.2192 4.83444 14.1703 4.8417 14.1214 4.84897C14.0696 4.85623 14.0179 4.86349 13.9648 4.87221C13.8851 4.88238 13.8041 4.89255 13.7216 4.90417C13.6978 4.90707 13.6741 4.90998 13.6503 4.91288L13.4825 4.93322C13.3637 4.9492 13.2435 4.96082 13.1191 4.9739C13.0269 4.98406 12.9346 4.99423 12.8367 5.00295C12.6956 5.01747 12.5502 5.032 12.4048 5.04217C12.3992 5.04362 12.3936 5.04362 12.3894 5.04362L12.2706 5.05379C12.1644 5.06251 12.0568 5.07122 11.9407 5.07849C11.9282 5.07994 11.9156 5.07994 11.903 5.08139C11.8666 5.0843 11.8317 5.0872 11.7968 5.08865C11.7688 5.09011 11.7422 5.09301 11.7129 5.09447C11.6374 5.10028 11.5605 5.10318 11.4808 5.10754C11.3425 5.11771 11.2013 5.12497 11.0587 5.13078C11.0042 5.13369 10.9483 5.13659 10.8924 5.13805C10.7819 5.14386 10.6715 5.14821 10.5569 5.15257C10.0481 5.17 9.52806 5.18017 8.99967 5.18017C6.81205 5.18017 4.73207 5.02038 3.14691 4.72985C1.49327 4.4277 0.964884 4.09504 0.802734 3.94977C0.900583 3.83356 0.991443 3.70427 1.07392 3.56482C1.22768 3.30624 1.33671 3.03896 1.41359 2.80072C1.41918 2.80508 1.42757 2.80944 1.43456 2.81379C1.4723 2.83704 1.51144 2.86173 1.55337 2.88497C1.56596 2.89224 1.57854 2.8995 1.59112 2.90531C1.64284 2.93436 1.69595 2.96197 1.75327 2.98811C1.76026 2.99102 1.76864 2.99538 1.77563 2.99828C1.82735 3.02152 1.88187 3.04622 1.93778 3.06946C1.95456 3.07527 1.97133 3.08254 1.9881 3.0898C2.0524 3.11595 2.1195 3.14064 2.19079 3.16534C3.63616 3.67813 6.18163 3.98318 8.99967 3.98318C9.52946 3.98318 10.0481 3.97156 10.5513 3.95122C11.0922 3.92943 11.615 3.89457 12.1141 3.84954C12.546 3.81032 12.9598 3.76528 13.3498 3.71008C13.3735 3.70718 13.3973 3.70427 13.4196 3.69991C13.7831 3.64907 14.1256 3.59097 14.4457 3.5256C14.9671 3.421 15.4269 3.30189 15.81 3.16534C15.8812 3.14064 15.9469 3.11595 16.0126 3.0898C16.0294 3.08254 16.0462 3.07527 16.063 3.06946C16.1189 3.04622 16.1734 3.02152 16.2251 2.99828C16.2321 2.99538 16.2405 2.99102 16.2475 2.98811C16.3048 2.96197 16.3579 2.93436 16.4096 2.90531C16.4222 2.89805 16.4348 2.89224 16.4474 2.88497C16.4893 2.86028 16.5298 2.83704 16.5676 2.81234C16.5746 2.80798 16.5816 2.80363 16.5872 2.80072C16.6654 3.03896 16.7745 3.3077 16.9268 3.56627Z" fill="#B5B5B6"/>
<path d="M16.5955 30.1179C16.6025 30.1165 16.6109 30.1136 16.6179 30.1107C16.4683 30.5406 16.4222 30.8907 16.4152 30.9459C16.4138 30.9605 16.4138 30.9692 16.4138 30.9837C16.2936 31.421 13.6433 32.2373 8.99965 32.2373C4.35742 32.2373 1.70711 31.421 1.5883 30.991C1.5883 30.9779 1.5869 30.9648 1.5855 30.9517C1.5855 30.9459 1.54496 30.5741 1.38281 30.1121C1.38421 30.1121 1.38421 30.1121 1.38421 30.1121C1.45131 30.1354 1.5212 30.1586 1.59109 30.1804C1.61066 30.1862 1.63023 30.192 1.6484 30.1978C1.71829 30.2196 1.78819 30.2399 1.85948 30.2603C1.86367 30.2617 1.86786 30.2632 1.87066 30.2632C1.94474 30.2835 2.02023 30.3039 2.09711 30.3227C2.11808 30.3286 2.14044 30.3329 2.16141 30.3387C2.2355 30.3562 2.30958 30.375 2.38506 30.391C2.39345 30.3939 2.40184 30.3954 2.40883 30.3968C2.48571 30.4143 2.56399 30.4302 2.64366 30.4462C2.66743 30.452 2.69259 30.4564 2.71635 30.4607C2.79323 30.4767 2.87151 30.4913 2.94979 30.5058C2.96097 30.5087 2.97216 30.5101 2.98334 30.5116C3.06302 30.5261 3.14269 30.5406 3.22377 30.5537C3.25033 30.5581 3.27689 30.5624 3.30345 30.5668C3.38172 30.5799 3.46 30.5929 3.53968 30.6046C3.55366 30.606 3.56904 30.6089 3.58441 30.6118C3.66409 30.6234 3.74516 30.6351 3.82484 30.6452C3.8542 30.6496 3.88215 30.6539 3.91151 30.6569C3.98839 30.6685 4.06527 30.6786 4.14215 30.6874C4.16312 30.6903 4.18409 30.6932 4.20505 30.6961C4.28333 30.7048 4.36161 30.715 4.43989 30.7237C4.46924 30.7266 4.4972 30.7295 4.52656 30.7338C4.60484 30.7426 4.68312 30.7498 4.76139 30.7585C4.78096 30.7614 4.80193 30.7629 4.8229 30.7644C4.89978 30.7731 4.97666 30.7803 5.05354 30.7876C5.0843 30.7905 5.11505 30.7934 5.1458 30.7963C5.21989 30.8036 5.29397 30.8094 5.36666 30.8166C5.39182 30.8181 5.41698 30.821 5.44214 30.8225C5.51483 30.8283 5.58752 30.8355 5.66021 30.8399C5.69096 30.8428 5.72171 30.8457 5.75246 30.8472C5.82515 30.853 5.89644 30.8588 5.96773 30.8631C5.9901 30.8646 6.01386 30.8675 6.03622 30.8689C6.10751 30.8733 6.1788 30.8777 6.2487 30.882C6.27805 30.8849 6.30741 30.8864 6.33676 30.8878C6.40386 30.8922 6.46956 30.8965 6.53525 30.9009C6.56181 30.9024 6.58837 30.9038 6.61493 30.9053C6.68063 30.9082 6.74493 30.9125 6.80923 30.9154L6.88891 30.9198C6.95321 30.9227 7.01611 30.9256 7.07901 30.9285C7.10138 30.93 7.12235 30.9314 7.14471 30.9314C7.20622 30.9343 7.26772 30.9372 7.32783 30.9401C7.35159 30.9401 7.37536 30.9416 7.40052 30.943C7.45923 30.9445 7.51794 30.9474 7.57525 30.9488C7.59342 30.9503 7.61159 30.9503 7.62976 30.9517C7.68708 30.9532 7.74159 30.9547 7.79471 30.9561C7.81707 30.9576 7.83804 30.9576 7.85901 30.959C7.91632 30.9605 7.97223 30.9619 8.02535 30.9634C8.03234 30.9634 8.03933 30.9634 8.04632 30.9648C8.10084 30.9663 8.15116 30.9663 8.20148 30.9677C8.22105 30.9692 8.23922 30.9692 8.25879 30.9692C8.30632 30.9706 8.35385 30.9721 8.39858 30.9721H8.40836C8.45449 30.9735 8.49642 30.9735 8.53836 30.975H8.5789C8.61943 30.9764 8.65718 30.9764 8.69212 30.9764C8.69212 30.9764 8.69352 30.9764 8.69492 30.9764C8.73126 30.9779 8.76201 30.9779 8.79277 30.9779H8.82212C8.84868 30.9793 8.87384 30.9793 8.89481 30.9793H8.99965C10.4171 30.9793 11.8275 30.9111 13.0758 30.7818C13.1666 30.7731 13.2547 30.7644 13.3385 30.7527C13.3413 30.7527 13.3455 30.7527 13.3497 30.7513C13.3581 30.7513 13.3665 30.7498 13.3749 30.7484C13.5287 30.7309 13.6768 30.7135 13.8222 30.6946C13.8418 30.6932 13.8613 30.6903 13.8809 30.6874C14.0263 30.6685 14.1675 30.6496 14.3045 30.6293C14.3282 30.6249 14.3506 30.622 14.3743 30.6191C14.5085 30.5987 14.6385 30.5784 14.7657 30.5566C14.7881 30.5523 14.8105 30.5494 14.8328 30.545C14.9586 30.5232 15.0817 30.5014 15.2005 30.4782C15.2186 30.4738 15.2382 30.4709 15.2564 30.4666C15.3766 30.4433 15.4926 30.4186 15.6044 30.3939C15.6184 30.391 15.631 30.3867 15.6436 30.3838C15.7596 30.3576 15.8714 30.3315 15.9791 30.3039C15.9833 30.3024 15.9875 30.301 15.9916 30.2995C16.0993 30.2719 16.2027 30.2428 16.302 30.2123C16.3076 30.2109 16.3145 30.2094 16.3201 30.208C16.4166 30.1789 16.5075 30.1484 16.5955 30.1179Z" fill="#B5B5B6"/>
<path d="M16.4112 2.00756C16.4098 2.00756 16.4098 2.00901 16.4112 2.00756C16.4084 2.01047 16.4084 2.01192 16.407 2.01337C16.4056 2.01482 16.4056 2.01773 16.4042 2.01918C16.4028 2.02064 16.4014 2.02354 16.4 2.02499C16.3972 2.0279 16.3958 2.0308 16.393 2.03371C16.3916 2.03661 16.3902 2.03807 16.3874 2.04097C16.3846 2.04533 16.3818 2.04824 16.379 2.05259L16.3538 2.07874C16.3524 2.08019 16.351 2.08165 16.3482 2.0831C16.3399 2.09182 16.3301 2.10053 16.3203 2.10925C16.3161 2.11215 16.3119 2.11651 16.3077 2.11942C16.2993 2.12523 16.2923 2.13249 16.2839 2.1383C16.2784 2.14266 16.2728 2.14702 16.2658 2.15137C16.2574 2.15718 16.249 2.16445 16.2392 2.17026C16.2322 2.17462 16.2252 2.18043 16.2182 2.18479C16.2085 2.19205 16.1973 2.19786 16.1861 2.20512C16.1777 2.21093 16.1693 2.21529 16.1609 2.2211C16.1484 2.22837 16.1372 2.23563 16.1232 2.24289C16.1134 2.24725 16.1036 2.25306 16.0938 2.25887C16.0799 2.26613 16.0659 2.27485 16.0505 2.28211C16.0393 2.28792 16.0281 2.29373 16.0156 2.29955C16.0002 2.30826 15.9834 2.31552 15.9652 2.32424C15.9527 2.33005 15.9401 2.33586 15.9261 2.34167C15.9079 2.35039 15.8884 2.3591 15.8674 2.36782C15.8534 2.37363 15.8408 2.37944 15.8255 2.3867C15.8017 2.39542 15.7765 2.40559 15.7514 2.41576C15.7388 2.42157 15.7262 2.42593 15.7122 2.43174C15.6997 2.43609 15.6871 2.44045 15.6745 2.44481C14.0027 2.06131 11.5816 1.84051 8.9998 1.84051C6.41938 1.84051 3.99693 2.06131 2.32651 2.44481C2.31253 2.44045 2.29855 2.43464 2.28597 2.43028C2.27339 2.42593 2.2636 2.42157 2.25102 2.41721C2.22307 2.40559 2.19511 2.39397 2.16855 2.3838C2.15877 2.37944 2.14898 2.37508 2.1392 2.37073C2.11403 2.36056 2.08887 2.34894 2.06511 2.33877C2.05952 2.33586 2.05532 2.33296 2.04973 2.33005C2.02317 2.31843 1.99801 2.30681 1.97425 2.29519C1.97285 2.29373 1.97285 2.29373 1.97145 2.29373C1.66253 2.1383 1.59823 2.02645 1.58984 2.01047C1.72683 1.57176 4.37574 0.762634 8.9998 0.762634C13.6127 0.762634 16.2602 1.56741 16.4112 2.00756Z" fill="#595757"/>
<path d="M13.9742 2.87625C13.8694 2.89513 13.7632 2.91257 13.6527 2.93C13.6234 2.93436 13.594 2.93871 13.5647 2.94307C13.4668 2.95905 13.3676 2.97358 13.2655 2.98665C13.2432 2.98956 13.2208 2.99391 13.197 2.99682C13.0768 3.0128 12.9538 3.02878 12.8294 3.0433C12.8001 3.04766 12.7693 3.05057 12.74 3.05347C12.6351 3.06655 12.5275 3.07817 12.4198 3.08834C12.3919 3.09124 12.3639 3.09415 12.336 3.09705C12.206 3.11013 12.0732 3.1232 11.9404 3.13482C11.9124 3.13627 11.8831 3.13918 11.8551 3.14209C11.7433 3.1508 11.6287 3.15952 11.514 3.16823C11.4805 3.16969 11.4483 3.17259 11.4148 3.1755C11.2778 3.18421 11.138 3.19293 10.9982 3.20164C10.9745 3.2031 10.9493 3.2031 10.9256 3.20455C10.8039 3.21181 10.6823 3.21762 10.5593 3.22343C10.5216 3.22489 10.4852 3.22634 10.4489 3.22779C10.3049 3.2336 10.1595 3.23796 10.0128 3.24232C9.99879 3.24232 9.98341 3.24377 9.96803 3.24377C9.83524 3.24668 9.70105 3.24958 9.56685 3.25103C9.52771 3.25249 9.48857 3.25249 9.44943 3.25394C9.29987 3.25539 9.1503 3.25685 8.99933 3.25685C8.84976 3.25685 8.70019 3.25539 8.55062 3.25394C8.51148 3.25249 8.47234 3.25249 8.4332 3.25103C8.29901 3.24958 8.16482 3.24668 8.03202 3.24377C8.01665 3.24377 8.00127 3.24232 7.9859 3.24232C7.84052 3.23796 7.69514 3.2336 7.55117 3.22779C7.51482 3.22634 7.47708 3.22489 7.44074 3.22343C7.31773 3.21762 7.19472 3.21181 7.0731 3.20455C7.04934 3.2031 7.02558 3.2031 7.00182 3.20164C6.86203 3.19293 6.72225 3.18421 6.58386 3.1755C6.55171 3.17259 6.51956 3.16969 6.48601 3.16823C6.37139 3.15952 6.25677 3.1508 6.14354 3.14209C6.11558 3.13918 6.08763 3.13627 6.05967 3.13482C5.92688 3.1232 5.79408 3.11013 5.66408 3.09705C5.63612 3.09415 5.60817 3.09124 5.58021 3.08834C5.47118 3.07817 5.36494 3.06655 5.25871 3.05347C5.22935 3.05057 5.2 3.04766 5.17064 3.0433C5.04624 3.02878 4.92323 3.0128 4.80301 2.99682C4.77925 2.99391 4.75688 2.98956 4.73452 2.98665C4.63247 2.97358 4.53323 2.95905 4.43398 2.94307C4.40463 2.93871 4.37527 2.93436 4.34732 2.93C4.23689 2.91257 4.12925 2.89513 4.02441 2.87625C5.4572 2.67724 7.18633 2.56683 8.99933 2.56683C10.8137 2.56683 12.5429 2.67724 13.9742 2.87625Z" fill="#898989"/>
<path d="M17.2671 28.9253C17.2671 28.9297 17.2657 28.9355 17.2657 28.9398C17.2657 28.9413 17.2643 28.9442 17.2629 28.9471C17.2615 28.95 17.2601 28.9529 17.2587 28.9573C17.2573 28.9587 17.2545 28.9616 17.2531 28.9645C17.2503 28.9689 17.2475 28.9732 17.2447 28.9762C17.2433 28.9791 17.2405 28.982 17.2377 28.9849C17.2349 28.9892 17.2307 28.9936 17.2265 28.9979C17.2237 29.0023 17.2209 29.0052 17.2167 29.0096L17.2042 29.0226C17.2 29.0255 17.1944 29.0299 17.1902 29.0343C17.1846 29.0386 17.1804 29.043 17.1748 29.0473C17.1692 29.0517 17.1622 29.0575 17.1566 29.0619C17.151 29.0662 17.1455 29.0706 17.1399 29.0749C17.1329 29.0807 17.1245 29.0866 17.1161 29.0909C17.1105 29.0953 17.1049 29.0996 17.0993 29.104C17.0895 29.1098 17.0784 29.1171 17.0672 29.1243C17.063 29.1272 17.0574 29.1301 17.0518 29.1345C17.0392 29.1418 17.0252 29.1505 17.0113 29.1577C17.0071 29.1606 17.0029 29.1635 16.9973 29.1665C16.9819 29.1752 16.9637 29.1839 16.9456 29.1941C16.9428 29.1955 16.94 29.197 16.9372 29.1984C16.9162 29.21 16.8938 29.2202 16.8715 29.2318C16.8701 29.2318 16.8701 29.2318 16.8687 29.2333C16.3613 29.4788 15.2961 29.8042 13.2636 30.0308C13.2497 30.0322 13.2357 30.0351 13.2217 30.0351C12.7353 27.9317 12.2111 23.9485 13.9724 20.3241C16.6632 14.7866 17.2335 9.94781 15.1242 5.41842C15.6973 5.31093 16.2285 5.17873 16.6744 5.01749C16.6786 5.01604 16.6828 5.01458 16.687 5.01313C16.7722 4.98263 16.8519 4.95357 16.9232 4.92307C16.9749 4.90273 17.0224 4.88239 17.0602 4.86496C17.1287 4.833 17.1944 4.80104 17.2531 4.77054C17.2573 4.76763 17.2615 4.76618 17.2657 4.76328L17.2671 28.9253Z" fill="#BA1414"/>
<path d="M13.9728 20.3241C12.2116 23.9485 12.7358 27.9317 13.2222 30.0351C13.1523 30.0453 13.081 30.0511 13.0083 30.0584C12.9804 30.0613 12.9524 30.0642 12.9231 30.0671C12.2633 28.0566 11.3421 24.0328 12.8406 20.1774C14.9947 14.6413 15.2407 9.91876 13.0545 5.71041C13.1006 5.70751 13.1453 5.70169 13.1901 5.69734C13.3187 5.68426 13.4445 5.66974 13.5647 5.65376L13.7492 5.63197C14.0441 5.59565 14.3209 5.55498 14.5837 5.5114C14.7682 5.48234 14.9485 5.45184 15.1247 5.41843C17.234 9.94781 16.6637 14.7866 13.9728 20.3241Z" fill="white"/>
<path d="M12.9235 30.0671C11.7172 30.1891 10.3627 30.253 8.99981 30.253C6.81079 30.253 4.7322 30.0933 3.14565 29.8027C0.949643 29.4003 0.737171 28.9471 0.734375 28.9471V4.75601C0.843407 4.81702 0.963621 4.87368 1.09362 4.92742C1.09362 4.92742 1.09362 4.92742 1.09502 4.92742C3.40425 5.89199 8.71325 5.90652 8.99981 5.90652C9.16755 5.90652 9.33529 5.90506 9.50163 5.90361H9.53518C9.654 5.90216 9.77142 5.9007 9.88744 5.8978C10.1153 5.89344 10.3403 5.88763 10.5626 5.87892C10.7233 5.8731 10.8799 5.86729 11.0365 5.86003C11.2 5.85277 11.3636 5.84405 11.5201 5.83388C11.6026 5.82952 11.6823 5.82371 11.7564 5.81936C11.8388 5.81355 11.9213 5.80919 11.994 5.80338C12.1044 5.79466 12.2148 5.78595 12.3239 5.77723L12.4539 5.76706C12.6048 5.75544 12.7558 5.74091 12.9012 5.72639C12.9529 5.72203 13.0032 5.71622 13.0549 5.71041C15.2412 9.91875 14.9951 14.6413 12.8411 20.1774C11.3426 24.0328 12.2638 28.0566 12.9235 30.0671Z" fill="#BA1414"/>
<path d="M4.56641 23.6435C4.56641 23.4459 4.6349 23.2948 4.77049 23.1888C4.87813 23.1031 5.00812 23.0609 5.16189 23.0609C5.43726 23.0609 5.75038 23.1568 6.10263 23.3486C6.40596 23.5171 6.67854 23.7263 6.91897 23.9761C7.07553 24.1417 7.15241 24.271 7.15241 24.3654C7.15241 24.4279 7.12306 24.4845 7.06295 24.5383C7.02101 24.5761 6.97209 24.5964 6.91897 24.5964C6.81973 24.5964 6.7065 24.5063 6.5793 24.3262C6.39758 24.072 6.19908 23.8715 5.98382 23.7204C5.6721 23.4996 5.40791 23.3892 5.19264 23.3892C5.10458 23.3892 5.03888 23.4096 4.99694 23.4488C4.95501 23.488 4.93264 23.5476 4.93264 23.6275C4.93264 23.7902 5.04587 24.0197 5.27232 24.3175C5.52812 24.656 5.87479 25.0148 6.31511 25.391C6.87424 25.8718 7.42359 26.2365 7.96596 26.4878C8.52649 26.7449 9.00595 26.8742 9.40293 26.8742C9.59304 26.8742 9.75519 26.8175 9.88799 26.7013C10.039 26.5749 10.113 26.4195 10.113 26.2365C10.113 25.9183 9.8754 25.5174 9.39874 25.0337C9.25476 24.8898 9.04369 24.7141 8.76971 24.5078C8.59359 24.3727 8.46918 24.2855 8.39509 24.2463C8.31262 24.2027 8.27208 24.1504 8.27208 24.0909C8.27208 24.0255 8.30144 23.9935 8.36154 23.9935C8.48875 23.9935 8.7753 24.1592 9.22122 24.4889C9.59304 24.7635 9.89637 25.0656 10.1312 25.3954C10.3954 25.7672 10.5268 26.1173 10.5268 26.4471C10.5268 26.7914 10.3786 27.0587 10.0795 27.2475C9.88938 27.3681 9.67272 27.4291 9.4281 27.4291C8.81584 27.4291 8.04284 27.1284 7.10908 26.527C6.31511 26.0142 5.67489 25.4738 5.18984 24.9044C4.77468 24.4148 4.56641 23.9935 4.56641 23.6435Z" fill="white"/>
<path d="M7.29395 22.1356C7.29395 21.8945 7.43513 21.7724 7.71889 21.7724C8.09631 21.7724 8.57437 21.954 9.15308 22.3157C9.77931 22.7108 10.0938 23.0929 10.0938 23.4604C10.0938 23.6318 10.0169 23.7568 9.86458 23.8367C9.7877 23.8773 9.69544 23.8991 9.5878 23.8991C9.22436 23.8991 8.83017 23.7698 8.40523 23.5098C8.01104 23.2687 7.70491 22.9839 7.48685 22.6571C7.35685 22.4653 7.29395 22.291 7.29395 22.1356ZM8.90146 22.5946C8.84415 22.6687 8.80082 22.705 8.77007 22.705C8.7477 22.705 8.6848 22.6585 8.58276 22.5641C8.2962 22.2983 8.06555 22.1661 7.88943 22.1661C7.86706 22.1661 7.8447 22.1734 7.82093 22.1879C7.779 22.2111 7.75663 22.2489 7.75663 22.2983C7.75663 22.3927 7.8447 22.5307 8.02082 22.7137C8.24727 22.9491 8.48211 23.1292 8.72254 23.2527C8.99791 23.3965 9.22576 23.4691 9.40748 23.4691C9.45501 23.4691 9.49834 23.4561 9.53469 23.4299C9.58641 23.3921 9.61157 23.3427 9.61157 23.2846C9.61157 23.1437 9.50952 22.9912 9.30544 22.83C9.22017 22.7588 9.13211 22.7021 9.04125 22.6571C8.95179 22.6135 8.90426 22.5917 8.90146 22.5946Z" fill="white"/>
<path d="M8.62459 21.017C8.84545 21.1056 9.02437 21.1725 9.15996 21.2161C9.29555 21.2596 9.3906 21.2829 9.44512 21.2829C9.51641 21.2829 9.55136 21.248 9.55136 21.1768C9.55136 21.0708 9.4549 20.9342 9.262 20.7657C9.16835 20.6858 8.99921 20.5682 8.75598 20.4127C8.65953 20.3503 8.61201 20.2863 8.61201 20.2181C8.61201 20.1411 8.64695 20.1033 8.71824 20.1033C8.83985 20.1033 9.08727 20.2486 9.4591 20.5406C9.8477 20.8442 10.042 21.126 10.042 21.3846C10.042 21.4964 9.99727 21.5879 9.90641 21.6591C9.84071 21.7085 9.76243 21.7346 9.66877 21.7346C9.50942 21.7346 9.28996 21.6838 9.00899 21.585C8.72803 21.4848 8.38695 21.3366 7.98438 21.1391C6.96116 20.6321 6.11686 20.1149 5.45289 19.5876C4.92031 19.1664 4.65332 18.8163 4.65332 18.5403C4.65332 18.4516 4.68547 18.379 4.75117 18.3238C4.81687 18.2643 4.89095 18.2352 4.97622 18.2352C5.37321 18.2352 6.03439 18.6042 6.95836 19.3407C7.36933 19.6704 7.78029 20.0655 8.19265 20.526C8.29889 20.6423 8.44287 20.8079 8.62459 21.017ZM7.94803 20.7033C7.44341 20.0902 6.8046 19.5426 6.03439 19.0589C5.6346 18.809 5.36901 18.6826 5.23902 18.6826C5.17611 18.6826 5.14536 18.7102 5.14536 18.7669C5.14536 18.9296 5.45568 19.2245 6.07632 19.6515C6.58653 20.0045 7.21137 20.3561 7.94803 20.7033Z" fill="white"/>
<path d="M9.33395 18.4967C9.4989 18.594 9.63728 18.6899 9.75051 18.7843C9.97137 18.9703 10.0818 19.1547 10.0818 19.3363C10.0818 19.4961 10.0091 19.6196 9.86513 19.7082C9.77148 19.7649 9.66105 19.7925 9.53384 19.7925C9.21933 19.7925 8.87127 19.6893 8.49105 19.483C8.0689 19.2535 7.74321 18.9761 7.51676 18.6521C7.36998 18.44 7.2959 18.2352 7.2959 18.0377C7.2959 17.9142 7.33224 17.811 7.40633 17.7282C7.47203 17.6571 7.54471 17.6222 7.62719 17.6222C7.69009 17.6222 7.77676 17.6469 7.88719 17.6977C7.94729 17.6527 7.99901 17.6309 8.04514 17.6309C8.10525 17.6309 8.2031 17.6716 8.33869 17.7544C8.47707 17.8401 8.66159 17.9258 8.89223 18.0115C9.13686 18.103 9.33255 18.1481 9.47933 18.1481C9.59814 18.1481 9.69599 18.1117 9.77287 18.0377C9.79244 18.0173 9.82599 17.9563 9.87072 17.8561C9.90427 17.782 9.96438 17.7457 10.0496 17.7457C10.1042 17.7457 10.1475 17.766 10.181 17.8081C10.2174 17.8517 10.237 17.904 10.237 17.9636C10.237 18.1234 10.1685 18.2599 10.0329 18.3747C9.92244 18.4691 9.78266 18.5156 9.61632 18.5156C9.55901 18.5156 9.46535 18.5098 9.33395 18.4967ZM7.93471 17.9447C7.87181 17.9795 7.82568 18.0188 7.79633 18.0594C7.76697 18.1001 7.75159 18.1451 7.75159 18.1916C7.75159 18.4153 7.9403 18.6594 8.31772 18.9209C8.73428 19.2099 9.08793 19.3538 9.37728 19.3538C9.44857 19.3538 9.50169 19.3392 9.53943 19.3116C9.57578 19.284 9.59535 19.2419 9.59535 19.1853C9.59535 19.0443 9.45137 18.8787 9.16202 18.6899C9.00266 18.5839 8.76922 18.4531 8.4603 18.2962C8.25901 18.1931 8.12622 18.1175 8.06052 18.0711C8.02417 18.0493 7.98364 18.0071 7.93471 17.9447Z" fill="white"/>
<path d="M6.1582 14.6747C6.1582 14.4772 6.2267 14.3261 6.36229 14.2201C6.46992 14.1344 6.59992 14.0922 6.75368 14.0922C7.02906 14.0922 7.34217 14.1881 7.69443 14.3798C7.99776 14.5484 8.27034 14.7575 8.51077 15.0074C8.66733 15.173 8.74421 15.3023 8.74421 15.3967C8.74421 15.4592 8.71485 15.5158 8.65475 15.5696C8.61281 15.6073 8.56389 15.6277 8.51077 15.6277C8.41152 15.6277 8.2983 15.5376 8.17109 15.3575C7.98938 15.1033 7.79088 14.9028 7.57561 14.7517C7.2639 14.5309 6.9997 14.4205 6.78444 14.4205C6.69637 14.4205 6.63067 14.4409 6.58874 14.4801C6.5468 14.5193 6.52444 14.5789 6.52444 14.6588C6.52444 14.8215 6.63766 15.051 6.86411 15.3488C7.11992 15.6872 7.46658 16.046 7.9069 16.4223C8.46604 16.9031 9.01539 17.2677 9.55775 17.519C10.1197 17.7791 10.5991 17.9083 10.9961 17.9083C11.1862 17.9083 11.3484 17.8502 11.4812 17.7355C11.6322 17.6091 11.7062 17.4537 11.7062 17.2706C11.7062 16.9525 11.4686 16.5516 10.9919 16.0678C10.848 15.924 10.6369 15.7483 10.3629 15.542C10.1868 15.4069 10.0624 15.3197 9.98829 15.2805C9.90582 15.2369 9.86528 15.1846 9.86528 15.1251C9.86528 15.0597 9.89463 15.0277 9.95474 15.0277C10.0819 15.0277 10.3685 15.1933 10.8144 15.5231C11.1862 15.7976 11.4896 16.0998 11.7244 16.4295C11.9886 16.8014 12.12 17.1515 12.12 17.4813C12.12 17.8255 11.9718 18.0928 11.6727 18.2817C11.4826 18.4023 11.2659 18.4633 11.0213 18.4633C10.409 18.4633 9.63603 18.1626 8.70227 17.5612C7.9083 17.0484 7.26809 16.508 6.78304 15.9385C6.36648 15.4476 6.1582 15.0263 6.1582 14.6747Z" fill="white"/>
<path d="M8.88574 13.1683C8.88574 12.9272 9.02692 12.8052 9.31069 12.8052C9.6881 12.8052 10.1662 12.9868 10.7449 13.3485C11.3711 13.7436 11.6856 14.1256 11.6856 14.4932C11.6856 14.6646 11.6087 14.7895 11.4564 14.8694C11.3795 14.9101 11.2872 14.9319 11.1796 14.9319C10.8162 14.9319 10.422 14.8026 9.99703 14.5426C9.60283 14.3014 9.29671 14.0167 9.07864 13.6898C8.94864 13.4981 8.88574 13.3238 8.88574 13.1683ZM10.4933 13.6274C10.4359 13.7015 10.3926 13.7378 10.3619 13.7378C10.3395 13.7378 10.2766 13.6913 10.1746 13.5969C9.88799 13.331 9.65735 13.1988 9.48122 13.1988C9.45886 13.1988 9.43649 13.2061 9.41273 13.2206C9.37079 13.2439 9.34843 13.2816 9.34843 13.331C9.34843 13.4255 9.43649 13.5635 9.61262 13.7465C9.83907 13.9818 10.0739 14.162 10.3143 14.2854C10.5897 14.4292 10.8176 14.5019 10.9993 14.5019C11.0468 14.5019 11.0901 14.4888 11.1265 14.4627C11.1782 14.4249 11.2034 14.3755 11.2034 14.3174C11.2034 14.1765 11.1013 14.024 10.8972 13.8627C10.812 13.7915 10.7239 13.7349 10.633 13.6898C10.5436 13.6448 10.4961 13.6245 10.4933 13.6274Z" fill="white"/>
<path d="M10.2164 12.0498C10.4372 12.1384 10.6162 12.2052 10.7518 12.2488C10.8873 12.2924 10.9824 12.3156 11.0369 12.3156C11.1082 12.3156 11.1432 12.2808 11.1432 12.2096C11.1432 12.1035 11.0467 11.967 10.8538 11.7985C10.7601 11.7186 10.591 11.6009 10.3478 11.4455C10.2527 11.3816 10.2038 11.3177 10.2038 11.2494C10.2038 11.1724 10.2387 11.1346 10.31 11.1346C10.4317 11.1346 10.6791 11.2799 11.0509 11.5719C11.4395 11.8755 11.6338 12.1573 11.6338 12.4159C11.6338 12.5277 11.5891 12.6192 11.4982 12.6904C11.4325 12.7398 11.3542 12.766 11.2606 12.766C11.1012 12.766 10.8818 12.7151 10.6008 12.6163C10.3198 12.5161 9.97875 12.3679 9.57617 12.1704C8.55295 11.6634 7.70866 11.1462 7.04468 10.6189C6.51211 10.1977 6.24512 9.84757 6.24512 9.57157C6.24512 9.48296 6.27727 9.41032 6.34297 9.35512C6.40866 9.29556 6.48275 9.26651 6.56802 9.26651C6.96501 9.26651 7.62618 9.63548 8.55016 10.372C8.96112 10.7017 9.37209 11.0969 9.78445 11.5573C9.89069 11.675 10.0361 11.8406 10.2164 12.0498ZM9.53983 11.7346C9.03521 11.1216 8.3964 10.5739 7.62618 10.0902C7.2264 9.84031 6.96081 9.71393 6.83081 9.71393C6.76791 9.71393 6.73716 9.74153 6.73716 9.79818C6.73716 9.96088 7.04748 10.2558 7.66812 10.6829C8.17973 11.0373 8.80317 11.3874 9.53983 11.7346Z" fill="white"/>
<path d="M10.9277 9.52944C11.0926 9.62677 11.231 9.72264 11.3443 9.81707C11.5651 10.003 11.6755 10.1875 11.6755 10.3691C11.6755 10.5289 11.6029 10.6523 11.4589 10.741C11.3652 10.7976 11.2548 10.8252 11.1276 10.8252C10.8131 10.8252 10.465 10.7221 10.0848 10.5158C9.66265 10.2863 9.33696 10.0088 9.11051 9.68487C8.96373 9.47278 8.88965 9.26796 8.88965 9.0704C8.88965 8.94692 8.92599 8.84378 9.00008 8.76098C9.06578 8.6898 9.13846 8.65494 9.22094 8.65494C9.28384 8.65494 9.37051 8.67963 9.48094 8.73048C9.54104 8.68544 9.59276 8.66365 9.63889 8.66365C9.699 8.66365 9.79685 8.70433 9.93244 8.78713C10.0708 8.87284 10.2553 8.95854 10.486 9.04425C10.7306 9.13577 10.9263 9.1808 11.0731 9.1808C11.1919 9.1808 11.2897 9.14448 11.3666 9.0704C11.3862 9.05006 11.4197 8.98905 11.4645 8.88882C11.498 8.81473 11.5581 8.77841 11.6434 8.77841C11.6979 8.77841 11.7412 8.79875 11.7748 8.84088C11.8111 8.88446 11.8307 8.93675 11.8307 8.99631C11.8307 9.1561 11.7622 9.29266 11.6266 9.40742C11.5162 9.50184 11.3764 9.54832 11.2101 9.54832C11.1514 9.54687 11.0577 9.54106 10.9277 9.52944ZM9.52706 8.97743C9.46416 9.01229 9.41803 9.05151 9.38868 9.09219C9.35932 9.13286 9.34395 9.17789 9.34395 9.22438C9.34395 9.44809 9.53266 9.69214 9.91007 9.95361C10.3266 10.2427 10.6803 10.3865 10.9696 10.3865C11.0409 10.3865 11.094 10.372 11.1318 10.3444C11.1681 10.3168 11.1877 10.2747 11.1877 10.218C11.1877 10.0771 11.0437 9.91149 10.7544 9.72264C10.595 9.6166 10.3616 9.48586 10.0527 9.32897C9.85136 9.22583 9.71857 9.15029 9.65287 9.10381C9.61653 9.08202 9.57599 9.03844 9.52706 8.97743Z" fill="white"/>
</g>
<defs>
<clipPath id="clip0_81744_535">
<rect width="18" height="33" fill="white"/>
</clipPath>
</defs>
</svg>
